<svg viewBox="0 0 128 128"><path d="m23.873 13.587 18.794.127 3.682 8.127 3.048-.127L54.73 16l19.429.508 5.714 5.968 5.968-7.873h17.143l.254 99.429-18.159.254-4.444-7.365-5.841-.254.127 3.936-21.588.254-.254-4.317h-6.095l-4.317 7.619h-18.16z" class="background"/><path d="M32.98 117H22V12h21.96l4.058 8.359 4.688-6.248 22.968-.032 4.086 6.312L84.04 12H106v105H84.04L82 113l-2.04-4H77v4H51v-4h-2.96L46 113l-2.04 4zm1.335-5h7.315l1.669-3.5 2.05-4.198c3.217-.036 6.434 0 9.651 0V109h18v-2l-.032-2.698h10.033l1.7 4.198 1.67 3.5H101V17H86.37l-3.338 7.635H77.145L73.212 19H54.788c-1.49 1.71-2.696 3.742-3.933 5.635H44.968L41.63 17H27v95zM64 90H46V73h-7v6h-5V32h5v24h7v-9.608l3.298-3.196L52.595 40H75.608l3.196 3.298L82 46.595V56h7V32h5v47h-5v-6h-7v17zm0-6h13V49.629l-2.174-2.315L72.65 45H55.63l-2.315 2.174L51 49.35V84z" opacity=".984"/><circle cx="64.022" cy="64.814" r="8.081" opacity=".984"/></svg>