<svg viewBox="0 0 128 128"><path d="m35.614 34.569 16.63-12.974h24.817L92.386 35.09v24.73h-5.224v17.24h5.311v24.904l-10.797 5.747H45.801l-9.84-6.444V78.019h4.355V60.343h-4.354z" class="background"/><path d="M64 110H41.038l-.627-2.5-.628-2.5H33V75h5V62h-5V31h5V28.198l4.496-1.849 4.497-1.849.003-2.75L47 19h34l.004 2.75.003 2.75 4.497 1.85L90 28.197V31h5v31h-5v13h5v30H88.217l-.628 2.5-.627 2.5zm0-5h19.962l.627-2.5.628-2.5H90V80.14l-5.054-.024L84.932 58H90V35h-5v-3.96L81 29l-4-2.04V24H51v2.96L47 29l-4 2.04V35h-5v23h5.068l.048 22.116-5.116.023V100H42.783l.628 2.5.627 2.5zm0-5H46.69l1.81-2 1.81-2h27.38l1.81 2 1.81 2zm0-43H48.04l-4.994-9h41.97l-5.057 9z"/></svg>