<svg viewBox="0 0 128 128"><path d="M25.472 4.397 15.92 14.1l25.624 26.078 1.06 16.223-26.836 28.05 8.491 9.552 25.32-24.714 4.852 9.855v6.974L43.818 89l-.607 10.007h6.975v25.017h8.642v-5.458h10.765V99.614h15.01V89L72.93 85.361l5.155-16.678 25.775 25.624 8.49-9.552L84.3 57.009l2.274-17.74 25.776-25.32-9.704-8.794L86.119 20.62 73.84 7.733l-9.553-1.82-10.461 2.123L40.937 20.62z" class="background"/><path d="M48 114v-13h-7v-5.277c0-6.541 1.829-9.33 7.037-10.733C51.204 84.137 52 83.46 52 81.61 52 78.86 50.072 73 49.167 73c-.351 0-6.055 5.404-12.675 12.008L24.454 97.017 18.5 90.999l-5.955-6.017L26.691 70.74 40.838 56.5l-.525-7.5-.524-7.5-13.633-13.752-13.633-13.751 6.233-6.233 6.232-6.232 8.256 8.161 8.256 8.161 2.721-3.9C58.024-.599 70.15.835 80.161 10.945l6.66 6.748 8.089-8.088 8.088-8.087 6.24 6.24 6.239 6.239-13.624 13.751L88.229 41.5l-.585 7.5-.586 7.5 14.199 14.24 14.199 14.242-5.955 6.017-5.955 6.018-12.038-12.009C84.888 78.404 79.195 73 78.857 73c-.709 0-2.433 4.294-3.266 8.134-.526 2.426-.222 2.722 3.863 3.75C85.137 86.315 87 88.991 87 95.723V101H73.223l-.572 3.25c-.314 1.788-.87 6.04-1.234 9.45l-.51 7.37-9.259.156.056 5.774H48zm8.877 1.952 9.865.048.651-5.25c.358-2.887.917-7.162 1.243-9.5l.591-4.168h6.887c6.624 0 6.886-.174 6.886-2.51 0-3.547-2.295-5.287-8.01-6.073-4.049-.557-4.97-1.027-4.6-2.348.256-.908.776-3.676 1.157-6.151.38-2.475 1.577-6.244 2.657-8.376l1.965-3.876-4.293-4.374c-5.96-6.073-9.781-6.084-15.706-.047l-4.247 4.327 1.952 4.553c1.073 2.504 2.259 7.018 2.635 10.03l.685 5.476-4.223.675C46.745 89.384 45 90.62 45 94.035V97l14.411.082.552 13.326-2.941-.012-.09-6.334-5.27.041.112 17.58 5.127-.022zm7.375-60.496c3.498.065 4.959 1.274 21.537 17.834l17.785 17.764 2.924-3.052 2.923-3.051-12.375-12.405C86.965 62.441 83.32 59.474 77.38 56.538c-7.207-3.562-7.29-3.647-7.085-7.321.198-3.57.501-3.864 7.706-7.449 6.12-3.045 9.703-5.94 19.483-15.748l11.982-12.016-3.237-3.237-3.237-3.237-17.756 17.735C69.036 41.445 67.175 43 64 43c-3.175 0-5.036-1.555-21.235-17.735L25.009 7.53l-3.237 3.237-3.237 3.237L30.517 26.02C40.297 35.827 43.88 38.723 50 41.768c7.205 3.585 7.508 3.878 7.706 7.449.204 3.674.122 3.759-7.085 7.32-5.941 2.937-9.586 5.904-19.667 16.01L18.579 84.95l2.923 3.052 2.924 3.051 18.037-17.833c17.072-16.88 18.238-17.83 21.79-17.765zM52.75 52.241c1.237-.81 2.25-2.064 2.25-2.788 0-1.429-3.869-4.35-8.25-6.23C44.017 42.05 44 42.068 44 45.956c0 2.153.45 5.098 1 6.546 1.084 2.849 3.096 2.781 7.75-.261zm30.152-.39C83.506 50.119 84 47.37 84 45.742c0-2.712-.224-2.903-2.689-2.284-3.907.98-8.465 4.51-8.114 6.281.267 1.348 6.172 5.261 7.94 5.261.367 0 1.161-1.417 1.765-3.15zm-7.977-20.275c8.294-8.338 8.367-8.456 7.122-11.462-.692-1.67-3.441-5.08-6.11-7.576C71.16 8.068 70.983 8 64.24 8c-6.058 0-7.323.351-10.991 3.049C49.074 14.119 45 19.575 45 22.097c0 .749 3.703 5.083 8.228 9.632C59.234 37.767 62.143 40 64 40c1.861 0 4.794-2.262 10.925-8.424zM49.68 21.064c-.191-.568 4.37-6.004 14.16-6.004S78.404 20.023 78 21.064c-.348.897-14.16 13.722-14.16 13.722S49.921 21.779 49.68 21.064z"/></svg>