<svg viewBox="0 0 128 128"><path d="M47.195 6.618h35.004v6.443l9.578 12.365v13.758h4.528v68.44l-16.196 13.932H49.11l-16.37-13.583V39.01h4.528V25.252l9.404-11.668z" class="background"/><path d="M45 4v8.217L35 24.783V37h-5v76h7.768l3.615 4.002L45 121.006V124h39V121.006l3.617-4.004L91.232 113H99V37h-5V24.783L84 12.217V4H64.5zm4 5h31v5.217l10 12.566V41h4v20h-6v4h6v20h-6v4h6v20l-2.75.021-2.75.022-4.463 4.979L79.574 119H49.426l-4.463-4.979-4.463-4.978-2.75-.022L35 109V89h6v-4h-6V65h6v-4h-6V41h4V26.783l10-12.566zm12 21v25h-7.416l-3.791 3.703L46 62.406V94.94L83 95V62.584l-3.703-3.791L75.594 55H68V30h-3.5zm-9.666 1-7.793 9H58v-9zM71 31v9h14.459l-7.793-9zM54.629 59.432h20.023l2.174 1.882L79 63.63V91H50V63.348l2.314-2.174zM49.973 100l1.513 3.623L53 107.244V108H76.629l1.685-3.533L80 100.932V100H75.957l-1.139 2.5-1.138 2.5H56.957l-1.139-2.5-1.138-2.5h-2.354z"/></svg>