<svg xmlns="http://www.w3.org/2000/svg" viewBox="0 0 512 512">
    <path d="M243.9 39.3c-10.7 10.3-40.2 38.6-61.3 58.7-11.5 11.1-17.6 16.9-39.7 38.1-10.1 9.7-20 19.1-21.9 20.9-2.9 2.7-20.8 19.8-46.5 44.5-2.9 2.7-13 12.4-22.5 21.5-23.1 22.1-26.6 25.4-40.2 38.6L.1 272.9l.3 4.6c.3 5.4 3.4 9.2 8.2 10.1 5.1.9 7.2-.3 17.3-10.1 5.3-5.1 11.9-11.4 14.6-14 2.8-2.6 13.1-12.4 22.9-21.9 9.8-9.4 20-19.1 22.6-21.6 29.2-27.9 40-38.2 43.9-41.9 2.5-2.4 12.9-12.4 23.1-22.1 10.2-9.8 20.5-19.7 23-22 2.5-2.3 9.5-9 15.5-14.9 19.2-18.4 48.4-46.3 56.7-54.1l7.9-7.5 7.3 7c4 3.8 15.5 14.9 25.6 24.5 10 9.6 20.4 19.5 22.9 22 5.3 5.1 38.9 37.1 46.1 44 10 9.5 43.9 42 54.5 52.1 6 5.9 13.3 12.8 16 15.4 2.8 2.6 12.8 12.2 22.4 21.4 9.5 9.1 19.9 19 23 21.9 3.1 3 9 8.7 13.2 12.7 10.5 10.3 15.3 11.8 20.9 6.7 5.8-5.2 5.2-11.1-1.9-18-5.5-5.4-40.6-39-46.7-44.8-2.3-2.2-12.3-11.8-22.4-21.4-10-9.6-20.1-19.3-22.4-21.4-4.1-3.9-35.1-33.5-54.6-52.2-5.8-5.6-12.7-12.3-15.5-14.9-2.7-2.6-13.3-12.7-23.4-22.4-10.1-9.7-20-19.1-22-21-9.4-8.9-39.6-37.8-41-39.4-.8-.9-1.8-1.7-2.1-1.7-.3 0-5.7 5.1-12.1 11.3zM336.1 65.3c-2.9 1.4-6 7.8-5.4 11.1.8 4.1 4.6 7.7 8.8 8.5 2.2.3 17.8.6 34.8.5l30.7-.1.1 2.6c0 1.4.1 15.4 0 31.1 0 15.7.2 29.9.5 31.6 1.1 7.2 8.8 11.3 15.2 8 5.8-3 5.7-2.3 5.8-50.4l.1-44.2-44.1.1c-31.1 0-44.8.4-46.5 1.2z"/>
    <path d="M70.5 278.4c-1.7.7-3.9 2.5-4.8 3.9-1.6 2.4-1.7 10.9-1.7 116.2V512h74.5c41 0 74.5-.3 74.6-.8 0-.4.1-31.5.2-69.2l.2-68.5 42.6-.1 42.5-.1v69.4l-.1 69.3H448V295.2l-2.6-3.1c-4.6-5.4-13.2-5.1-17 .7-1.6 2.5-1.8 9.7-1.8 100.2l-.1 97.5-53.2.1H320V352H192v138.7l-53.3-.1H85.4v-99.5c.1-54.8-.2-101.5-.5-103.9-1.1-7.6-7.7-11.7-14.4-8.8z"/>
</svg>
