<svg viewBox="0 0 128 128"><path d="M35.845 121H25V27h22.81l2.637 4.5 2.637 4.5H55V4h18v32h1.816l2.842-4.498 2.842-4.498 11.25-.002L103 27v94H81.31l-1.81-2-1.81-2H50.31l-1.81 2-1.81 2zM38 116h8V94.406L42 90.5l-4-3.906V56.227l8.25-2.864L54.5 50.5v-10l-3.947-.025-2.915-5.014L44.816 31H30v85zm52 0h8V31H83.184l-2.822 4.46-2.915 5.046L73.5 40.5v10l8.25 2.863L90 56.227V86.594L86 90.5l-4 3.906V116zm-26-3.5h16V95H48v17.5zM64 90h15.626l2.719-2.838 2.72-2.838-.283-12.412L84.5 59.5l-7.75-2.43L69 54.64V9h-8.962l-.27 22.69-.268 22.688-8 2.561-8 2.561-.282 12.412-.282 12.412 2.719 2.838L48.375 90zm-7-6h-7V71h14v13z"/></svg>