<svg viewBox="0 0 128 128"><path d="m32.756 19.826 16.994.123 4.802 6.65h19.826l4.803-7.389 16.993.246.123 89.771-17.609-.37-4.926-3.447-17.978-.123-6.527 4.433-16.378-.123z" class="background"/><path d="M41.95 110.978 33.4 111l-1.2-1.2-1.2-1.2V20.4l1.2-1.2 1.2-1.2h17.582l2.259 3.488 2.259 3.487 9.151.013 9.151.012 2.065-3.5 2.066-3.5H95.6l1.2 1.2 1.2 1.2v88.2l-1.2 1.2-1.2 1.2-8.55-.022-8.55-.022L76 109l-2.5-1.956h-18L53 109l-2.5 1.956-8.55.022zM41.845 107h6.845l1.81-2 1.81-2h24.38l1.81 2 1.81 2H94v-7h-5v-5h5V80h-5v-5h5V22H81.163L79 25.5 76.837 29H52.163L50 25.5 47.837 22H35v53h5v5h-5v15h5v5h-5v7zM62 65.63V50h5v15.63zm2.5-22.666h-17l-3.306-3.982L40.887 35H57v4h15v-4h16.113l-3.307 3.982-3.306 3.982z"/><circle cx="64.465" cy="78.811" r="11.149" fill="none" stroke-width="5.105"/></svg>