<svg viewBox="0 0 128 128"><path d="M33.618 20.318H49.75l4.31 6.65h21.303l4.31-6.773h16.132v88.663H79.673l-5.172-4.31H53.567l-3.694 4.31H33.987z" class="background"/><path d="M41.95 110.978 33.4 111l-1.2-1.2-1.2-1.2V20.4l1.2-1.2 1.2-1.2h17.582l2.259 3.488 2.259 3.487 9.151.013 9.151.012 2.065-3.5 2.066-3.5H95.6l1.2 1.2 1.2 1.2v88.2l-1.2 1.2-1.2 1.2-8.55-.022-8.55-.022L76 109l-2.5-1.956h-18L53 109l-2.5 1.956-8.55.022zM41.845 107h6.845l1.81-2 1.81-2h24.38l1.81 2 1.81 2H94v-7h-5v-5h5V80h-5v-5h5V22H81.163L79 25.5 76.837 29H52.163L50 25.5 47.837 22H35v53h5v5h-5v15h5v5h-5v7zM63.5 95H46V62.406L53.192 55H61V33h7v22h13v40zm0-4H77V59H54.237L50 63.349V91zM52.25 42.982H47.5l-3.306-4L40.887 35H57v7.982zm24.5 0H72V35h16.113l-3.307 3.982-3.306 4z"/></svg>