<svg viewBox="0 0 128 128"><path d="M36.503 106.052c-.108-3.174-.974-81.741-.901-81.814.034-.034 3.587-.022 7.896.027l7.833.09 2.418 3.028 2.452 3.072c.035.044 11.656-.408 14.176-.552l1.38-.078 2.315-2.78 2.499-3c.177-.213.491-.212 8.303.026 4.465.136 8.13.26 8.145.277.016.017.047 18.63.071 41.363l.043 41.333-2.216.075c-1.22.042-4.65.134-7.625.204l-5.408.128-6.044-2.214-6.044-2.213-3.94-.079-3.941-.078-3.817 2.655-3.816 2.654H36.576z" class="background"/><path d="M43.45 109.993 35.4 110l-1.2-1.2-1.2-1.2V24.4l1.2-1.2 1.2-1.2h18.224l2.218 3 2.218 3h11.566l2.874-3 2.874-3H92.6l1.2 1.2 1.2 1.2v83.2l-1.2 1.2-1.2 1.2H77.47l-3.731-2-3.732-2-6.253.007-6.254.007-3 1.987-3 1.987-8.05.007zM44.845 105h6.845l1.81-2 1.81-2h17.38l1.81 2 1.81 2H90v-7h-5v-5h5V80h-5v-5h5V42h-5v-5h5V26H77.163L75 29.5 72.837 33H55.163L53 29.5 50.837 26H38v11h5v5h-5v33h5v5h-5v13h5v5h-5v7zM64 91H47V81h34v10zm-2-41.154V38h4v11.846z"/><circle cx="64.087" cy="57.948" r="8.707"/></svg>