<svg viewBox="0 0 128 128"><path d="M32.386 39.036h4.803V24.875l10.098-11.822V6.65h34.726v6.526l9.851 13.176v12.192h5.05v72.284H89.77l-8.866 10.467h-32.88l-8.866-9.728h-7.142z" class="background"/><path d="M45 4v8.217L40 18.5l-5 6.283V37h-5v76h7.768l3.615 4.002L45 121.006V124h39V121.006l3.617-4.004L91.232 113H99V37h-5V24.783L89 18.5l-5-6.283V4H64.5zm4 5h31V14.217l5 6.283 5 6.283V41h4v20h-6v4h6v20h-6v4h6v20l-2.75.021-2.75.022-4.463 4.979L79.574 119H49.426l-4.463-4.979-4.463-4.978-2.75-.022L35 109V89h6v-4h-6V65h6v-4h-6V41h4V26.783l5-6.283 5-6.283v-2.61zm2.334 22-7.553 8.863 18.328.03.006-8.893h-5.39zM67 31l.006 8.893 18.328-.03L77.779 31h-5.388zm-5 16V62.629h5V47h-2.5zM47.164 94l3.111 7 3.11 7H76.57l3.215-6.52L83 94.963V94l-2.25.018-2.25.015-2.373 5.485L73.752 105H56.979l-2.698-5.5-2.697-5.5h-2.209z"/><circle cx="64.479" cy="75.842" r="11.164" fill="none" stroke-width="5.499"/></svg>